<?xml version="1.0" encoding="UTF-8" standalone="no"?>
<svg width="142px" height="160px" viewBox="0 0 142 160" version="1.1" xmlns="http://www.w3.org/2000/svg" xmlns:xlink="http://www.w3.org/1999/xlink" xmlns:sketch="http://www.bohemiancoding.com/sketch/ns">
    <!-- Generator: Sketch 3.3 (11970) - http://www.bohemiancoding.com/sketch -->
    <title>cornerstone-logo copy</title>
    <desc>Created with Sketch.</desc>
    <defs></defs>
    <g id="Page-1" stroke="none" stroke-width="1" fill="none" fill-rule="evenodd" sketch:type="MSPage">
        <g id="apple-touch-icon-copy" sketch:type="MSArtboardGroup" transform="translate(-19.000000, -11.000000)">
            <g id="cornerstone-logo-copy" sketch:type="MSLayerGroup" transform="translate(18.000000, 11.000000)">
                <g id="cornerstone-logo" transform="translate(0.767258, 0.409302)" fill="#C3DEC6" sketch:type="MSShapeGroup">
                    <path d="M124.252023,55.7990832 L71.1415103,91.6718936 L71.1415103,91.6718936 L71.2428273,91.7405889 L71.2428273,159.217075 L1.30070796,111.794641 L1.30070796,44.6985307 L0.893381742,44.424474 L71.3487745,0.105947189 L141.592273,44.0868352 L141.184947,44.3619584 L141.184947,111.794641 L71.2428273,159.217075 L71.2428273,91.7405889 L124.252023,55.7990832 Z" id="Rectangle-1"></path>
                </g>
                <g id="Rectangle-1-+-Rectangle-1-Copy-+-Rectangle-1-Copy-2-Copy" transform="translate(21.869096, 4.706504)" sketch:type="MSShapeGroup">
                    <path d="M28.0210831,27.9765057 L85.9054172,14.7313911 L74.3159419,74.2713645 L14.7759686,85.8608397 L28.0210831,27.9765057 Z" id="Rectangle-1" fill="#88BC8D" transform="translate(50.340693, 50.296115) rotate(-315.000000) translate(-50.340693, -50.296115) "></path>
                    <path d="M50.3406929,132.290658 L0.215507372,98.4673044 L0.215507372,50.3406929 L50.3406929,84.1640465 L50.3406929,132.290658 Z" id="Rectangle-1-Copy" fill="#74B179"></path>
                    <path d="M100.465878,98.4673044 L100.465878,50.3406929 L50.3406929,84.1640465 L50.3406929,132.290658 L100.465878,98.4673044 Z" id="Rectangle-1-Copy-2" fill="#61A767"></path>
                </g>
            </g>
        </g>
    </g>
</svg>